<svg xmlns="http://www.w3.org/2000/svg" width="500" height="375" viewBox="0 0 500 375" class="f1-svg-track"><path class="f1-svg-track__outline" d="M202.519 314.065c-6.151 0-9.683-1.153-11.453-3.74-.741-1.111-2.098-3.412-5.612-10.976-3.101-6.618-4.788-8.86-5.517-9.607-.962-1.011-1.51-1.561-1.814-1.856-.695-.217-2.23-.678-5.611-1.658-.997-.304-2.838-.647-6.252-.647-4.082 0-9.529.489-16.19 1.453l-.301.032c-14.935.999-25.513 1.505-31.44 1.505-8.272 0-21.508-1.562-40.463-4.773-17.129-2.977-28.143-5.296-33.667-7.09-7.301-1.533-12.228-3.019-15.056-4.542-3.588-1.996-4.834-4.644-5.255-6.518-.77-3.425.381-7.221 3.518-11.606l.104-.138c7.203-9.187 9.884-13.161 10.863-14.879 1.479-2.803 1.373-5.202-.341-7.774-.868-1.321-4.328-5.08-17.895-15.643-14.149-11.095-17.31-15.507-18.485-18.113-2.012-4.491-2.181-11.765-.536-22.901l.038-.214c2.337-11.419 3.994-19.133 4.923-22.926.903-4.069 3.812-11.024 8.871-21.182 6.161-12.374 7.148-15.092 7.304-15.657.138-.839.336-2.656.511-6.578.156-3.504.452-7.411.879-11.611.334-3.62 2.736-9.751 15.019-9.751 6.071 0 10.924-1.339 14.424-3.98 4.221-3.252 11.185-8.001 20.665-14.091 10.17-6.642 21.066-8.996 32.18-6.943 10.74 2.026 20.01 5.993 27.566 11.792 6.989 5.365 22.955 16.264 47.454 32.393 1.077.708 1.738 1.899 1.771 3.188.033 1.289-.566 2.511-1.605 3.274-.264.193-.727.581-1.434 1.323-1.155 1.245-2.095 2.658-2.757 4.164-2.229 4.985-1.476 10.414 2.292 16.619 8.507 13.951 14.866 23.659 18.898 28.849 8.559 11.179 17.795 19.705 27.468 25.363 10.383 6.047 24.577 10.015 42.18 11.79 6.036.606 11.719.913 16.89.913h.001c6.246 0 11.925-.448 16.882-1.331 1.689-.287 3.324-.646 4.892-1.073 7.127-1.877 12.749-4.985 16.74-9.247 1.638-1.735 4.887-5.954 11.125-16.259.736-1.215 2.092-1.945 3.486-1.896 7.363.221 13.581-.107 18.463-.976 5.298-.981 11.419-1.641 18.166-1.955 6.537-.342 16.15-.959 28.552-1.835l.219-.009c10.993-.171 19.79 1.617 26.182 5.298 4.415 2.508 17.874 9.767 39.983 21.565 27.463 12.433 30.096 16.262 30.575 19.666.357 2.53-.186 7.399-6.912 24.322-4.931 12.306-7.744 19.272-8.604 21.306-.917 2.076-2.037 4.492-3.353 7.24-1.515 3.03-3.77 6.267-6.733 9.682-3.772 4.296-10.012 5.549-18.802 3.687-7.352-1.625-16.765-4.104-28.01-7.376-7.983-2.371-11.877-2.867-13.743-2.867l-.465.012c-.224 1.377-.388 4.804.795 12.761 1.471 9.858.649 16.269-2.589 20.175-3.187 3.685-8.055 5.821-14.522 6.412-5.492.503-11.859.875-18.923 1.107-7.019.192-13.055.29-17.961.29-10.583 0-34.416.426-70.834 1.265-2.86.039-5.758.096-8.733.172-39.544.912-60.873 1.395-63.475 1.437-5.925.656-10.264 1.032-13.262 1.15-.484.009-.886.013-1.274.013zm-5.124-8.454c.41.171 1.746.581 5.124.581.333 0 .675-.004 1.029-.012 2.734-.108 7.072-.488 12.826-1.127l.435-.024c.56-.002 9.566-.193 63.528-1.437 2.997-.077 5.927-.134 8.78-.172 36.441-.841 60.335-1.267 70.979-1.267 4.835 0 10.798-.096 17.725-.286 6.89-.226 13.102-.589 18.443-1.079 4.371-.399 7.476-1.63 9.23-3.659.698-.844 2.288-4.023.81-13.927-1.843-12.391-.908-16.271.25-18.433 1.174-2.23 3.603-3.375 7.207-3.375 3.521 0 8.743 1.042 15.963 3.187 11.06 3.218 20.303 5.654 27.455 7.234 2.063.437 3.944.662 5.557.662 2.682 0 4.582-.616 5.647-1.83 2.517-2.9 4.404-5.586 5.594-7.965 1.252-2.617 2.338-4.961 3.199-6.906.803-1.9 3.678-9.019 8.517-21.098 5.521-13.89 6.344-18.478 6.429-19.856-1.04-1.108-5.702-4.844-26.141-14.092l-.23-.114c-22.55-12.033-35.731-19.143-40.298-21.737-5.142-2.961-12.56-4.383-22.047-4.262-12.396.875-22.021 1.493-28.608 1.837-6.411.298-12.173.916-17.147 1.838-4.924.875-10.849 1.261-17.808 1.151-4.773 7.773-8.359 12.895-10.937 15.626-5.009 5.348-11.889 9.207-20.439 11.459-1.782.485-3.669.9-5.578 1.225-5.38.958-11.526 1.447-18.232 1.447h-.001c-5.432 0-11.379-.32-17.677-.952-18.732-1.889-33.994-6.203-45.362-12.824-10.565-6.18-20.567-15.382-29.733-27.354-4.256-5.478-10.604-15.155-19.39-29.564-5.144-8.467-6.072-16.508-2.764-23.905.745-1.692 1.717-3.309 2.896-4.815-22.408-14.793-37.174-24.909-43.92-30.087-6.568-5.04-14.716-8.505-24.218-10.298-9.054-1.674-17.953.262-26.454 5.812-9.317 5.984-16.095 10.603-20.17 13.743-4.929 3.719-11.377 5.592-19.199 5.592-3.166 0-6.98.458-7.182 2.638-.416 4.089-.701 7.845-.85 11.202-.162 3.613-.367 6.106-.628 7.625-.166.965-.443 2.581-8.006 17.769-5.859 11.765-7.722 17.077-8.252 19.463-.921 3.766-2.548 11.345-4.854 22.606-1.784 12.146-.801 16.751-.056 18.417.516 1.143 3.129 4.925 16.15 15.136 14.886 11.589 18.324 15.539 19.613 17.501 3.322 4.985 3.57 10.478.703 15.863l-.048.086c-1.603 2.837-5.363 8.019-11.491 15.838-2.372 3.337-2.277 4.845-2.19 5.229.1.444.555.894 1.354 1.338 1.43.77 4.91 2.077 13.099 3.787.146.03.291.069.433.116 5.007 1.657 16.022 3.97 32.742 6.876 18.242 3.091 31.414 4.66 39.131 4.66 5.733 0 16.083-.497 30.763-1.478 6.966-1.003 12.741-1.512 17.167-1.512 3.571 0 6.351.319 8.498.975 6.45 1.869 6.7 1.994 7.114 2.202.695.348 1.197.731 3.733 3.394 1.933 1.979 4.163 5.722 6.984 11.743 2.741 5.904 4.115 8.477 4.803 9.589z"></path></svg>
