<svg xmlns="http://www.w3.org/2000/svg" width="500" height="375" viewBox="0 0 500 375" class="f1-svg-track"><path class="f1-svg-track__outline" d="M336.832 347.641c-7.824 0-14.847-3.193-20.871-9.51-8.577-8.98-15.726-18.889-21.248-29.45-7.68-14.831-11.631-30.208-11.753-45.719-.08-6.492.08-14.118.475-22.646.388-9.463.605-15.395.644-17.61.111-10.688-1.776-20.119-5.61-28.005-3.922-8.146-10.966-18.181-20.942-29.84-9.754-11.354-18.15-18.227-24.952-20.422-7.354-2.389-24.367-5.287-50.573-8.615-35.85-4.661-41.663-5.513-42.918-5.748-4.088-.751-5.786-2.862-6.486-4.5-.777-1.902-.774-4.355 1.561-10.883 1.437-4.123 1.892-6.549 1.987-7.938-.297-.056-.749-.106-1.4-.106v-7.874c8.846 0 9.295 6.173 9.295 7.411 0 2.746-.804 6.387-2.458 11.129-.932 2.606-1.313 4.11-1.467 4.932l.404.087c1.249.233 9.62 1.406 42.486 5.679 27.059 3.437 44.071 6.36 51.996 8.934 8.309 2.682 17.635 10.137 28.503 22.788 10.423 12.181 17.841 22.789 22.052 31.535 4.366 8.98 6.52 19.598 6.396 31.544-.04 2.305-.259 8.299-.65 17.844-.388 8.397-.545 15.868-.468 22.225.112 14.278 3.767 28.458 10.865 42.164 5.172 9.893 11.891 19.2 19.959 27.649 4.861 5.097 10.253 7.399 16.472 7.033 2.91-.144 6.664-.85 11.193-2.102.955-.266 3.956-1.152 12.792-3.857.667-.195 1.307-.397 1.965-.617 10.579-3.255 13.821-6.723 14.693-9.065.425-1.076.531-2.339.34-3.82-.534-2.399-.919-4.067-1.176-5.096-.051-.213-.413-1.529-3.395-5.856-3.202-4.374-5.721-7.812-7.56-10.314-7.647-10.741-11.799-18.798-12.728-24.682-1.084-7.072.571-13.191 4.917-18.207 1.378-1.646 3.224-3.347 5.6-5.151 1.213-.891 2.855-2.107 4.976-3.689 2.104-1.685 4.859-3.529 8.408-5.631 1.476-1.333 2.233-3.292 2.314-5.974.089-3.127-1.696-6.97-5.304-11.416-.905-1.137-3.643-4.154-11.689-12.247-9.549-9.589-17.304-18.028-23.048-25.08-6.211-7.666-9.596-16.619-10.065-26.62-.547-9.837 1.151-18.557 5.049-25.881 4.076-7.878 9.09-12.306 14.88-13.12 4.802-.716 9.366-.776 13.536-.174 4.002.584 8.957 1.817 15.149 3.769 8.213 2.237 18.871 5.06 31.678 8.389 22.763 5.835 29.881 7.364 31.843 7.619 4.716.583 9.093 3.02 12.985 7.241 3.884 4.216 5.879 8.425 5.93 12.512.041 3.177-.207 7.677-.757 13.749.416 9.645 2.15 13.727 3.539 15.453 2.143 2.704 4.218 4.486 6.185 5.321 1.425.614 4.247 1.336 9.708 1.336 3.675.05 6.86-1.774 9.702-5.512 1.629-2.166 3.92-9.413.82-33.445-2.51-19.155-4.88-32.45-7.043-39.508-2.727-8.897-4.721-11.316-5.452-11.943-1.136-.959-2.724-1.638-4.704-2.002-7.672-.148-13.751-1.163-18.579-3.103-6.894-2.857-10.691-6.634-11.324-11.244-.167-1.274-.113-2.967.167-5.351.198-2.071.175-3.278.116-3.925-.165-1.207-.705-2.759-3.285-4.179-1.134-.625-3.836-1.746-10.289-3.544-2.402-.628-13.895-2.987-34.097-6.997-11.018-2.157-24.717-4.825-41.083-8.005-42.566-8.232-72.764-13.975-89.75-17.067-11.835-2.176-24.166-3.025-36.647-2.531-7.844.344-14.914 1.133-20.998 2.343-6.83 1.314-14.523 1.092-22.889-.656-.172-.036-.341-.084-.507-.143-6.201-2.192-11.259-3.642-15.035-4.309-3.116-.549-7.159.272-12.021 2.445-7.323 5.112-13.326 8.188-18.342 9.399-4.675 1.087-13.769 2.671-27.059 4.715-13.008 2.001-23.97 4.374-32.58 7.052-8.611 2.667-21.966 8.661-39.698 17.815-15.862 8.202-25.842 13.92-29.66 16.997-1.797 1.465-1.952 2.247-1.954 2.253.565.989 2.315 1.753 4.869 2.158 1.626.271 10.939.717 55.382.717h16.368c14.552-.039 31.194-.099 49.917-.177l.033 7.874c-18.727.079-35.373.138-49.939.177h-16.379c-46.367 0-54.535-.467-56.646-.819-5.194-.823-8.729-2.891-10.476-6.142-1.273-2.269-2.516-6.957 3.867-12.159 4.305-3.468 14.441-9.311 31.003-17.874 18.4-9.5 31.803-15.499 40.978-18.34 8.978-2.793 20.323-5.254 33.717-7.314 13.094-2.014 21.99-3.56 26.439-4.595 4.019-.971 9.393-3.798 15.939-8.396.199-.139.41-.26.63-.36 6.574-2.996 12.128-4.035 16.979-3.18 4.148.732 9.543 2.263 16.038 4.55 7.239 1.486 13.803 1.684 19.513.584 6.452-1.284 13.922-2.12 22.181-2.483 13.081-.52 25.993.374 38.393 2.652 17.009 3.097 47.235 8.845 89.832 17.083 16.375 3.181 30.077 5.851 41.108 8.01 20.652 4.099 31.976 6.427 34.627 7.12 5.991 1.67 9.795 3.014 12.034 4.249 5.337 2.936 6.918 7.129 7.304 10.128l.013.112c.144 1.448.105 3.278-.118 5.596-.283 2.422-.218 3.266-.191 3.468.212 1.547 2.581 3.379 6.495 5.001 3.888 1.562 9.299 2.417 16.044 2.526.196.003.391.021.584.053 3.521.587 6.476 1.873 8.782 3.82 2.865 2.457 5.36 7.418 7.878 15.633 2.323 7.582 4.719 20.927 7.323 40.799 3.562 27.615.366 35.603-2.348 39.21-4.361 5.736-9.691 8.636-15.856 8.636-5.598-.029-9.824-.632-12.929-1.971-3.218-1.365-6.247-3.869-9.242-7.647-3.145-3.908-4.872-10.557-5.265-20.305-.007-.173-.003-.346.013-.517.535-5.847.788-10.286.75-13.193-.026-2.086-1.321-4.534-3.847-7.275-2.629-2.851-5.308-4.411-8.186-4.767-3.238-.421-13.966-2.974-32.82-7.807-12.889-3.351-23.602-6.188-31.854-8.436l-.15-.044c-5.74-1.812-10.446-2.992-13.987-3.509-3.404-.491-7.2-.433-11.275.174-3.15.443-6.181 3.465-9.037 8.987-3.234 6.077-4.625 13.405-4.158 21.82.397 8.438 3.115 15.642 8.314 22.058 5.573 6.841 13.151 15.084 22.518 24.491 6.759 6.798 10.764 11.006 12.245 12.868 4.874 6.003 7.184 11.435 7.038 16.578-.154 5.134-1.961 9.166-5.371 11.988-.161.133-.333.254-.513.36-3.352 1.974-5.988 3.728-7.834 5.211l-.112.086c-2.169 1.618-3.847 2.861-5.03 3.729-1.823 1.384-3.292 2.725-4.315 3.946-2.846 3.285-3.855 7.158-3.13 11.891.495 3.137 2.864 9.391 11.327 21.277 1.812 2.465 4.345 5.922 7.565 10.32l.064.09c3.513 5.092 4.305 7.239 4.602 8.542.261 1.041.673 2.827 1.241 5.381l.056.307c.408 2.909.15 5.561-.768 7.883-2.172 5.826-8.604 10.344-19.638 13.739-.664.223-1.398.454-2.111.663-7.114 2.177-11.485 3.495-12.949 3.902-5.164 1.427-9.373 2.204-12.873 2.376-.578.038-1.153.054-1.722.054z"></path></svg>
