<svg xmlns="http://www.w3.org/2000/svg" width="500" height="375" viewBox="0 0 500 375" class="f1-svg-track"><path class="f1-svg-track__outline" d="M333.446 337.225c-55.963 0-243.29-.889-249.271-2.084l-.535-.106c-22.467-4.437-38.183-14.469-46.708-29.816-13.213-23.782-11.149-51.08-9.931-56.562.414-1.862 1.288-4.883 2.301-8.382 1.196-4.133 3.277-11.324 3.796-14.509-1.331-.761-3.495-1.895-5.471-2.932-12.65-6.631-22.52-12.131-24.959-17.497-2.952-6.494-4.971-14.298 2.44-22.943 5.715-6.669 21.153-19.612 28.505-24.406 1.96-1.278 13.611-7.63 35.763-19.688 19.605-10.672 44.005-23.954 65.923-36.099 45.198-25.042 108.152-57.231 111.494-58.824 3.18-1.514 18.104-2.16 67.784-3.597 5.322-.154 10.744-.311 16.177-.473 4.889-.146 9.789-.301 14.627-.454 17.577-.555 34.18-1.079 46.642-1.079 14.615 0 18.845.754 20.896 1.411 16.078 5.145 28.879 11.486 59.108 51.163 21.419 28.112 26.586 50.181 27.813 58.365.959 6.389-2.576 42.037-5.767 47.221-2.771 4.503-12.516 13.805-24.951 13.806-1.918 0-3.846-.222-5.73-.661-7.444-1.731-28.53-8.783-44.325-14.297-35.003-12.217-36.305-13.734-37.082-14.642-.212-.248-21.078-26.431-20.307-38.774.675-10.804 6.516-25.18 16.023-39.441 8.568-12.852 18.149-30.884 19.751-35.651-.639-.469-2.138-1.196-4.722-1.196-1.733 0-3.626.327-5.626.972-8.63 2.783-38.635 20.036-42.661 23.304-.522.983-1.824 3.739-3.087 6.414-10.649 22.55-17.35 35.234-22.25 37.685-3.487 1.744-11.356 3.597-19.07 3.598-6.07 0-11.059-1.131-14.826-3.364-5.082-3.011-7.769-7.924-7.769-14.207 0-12.044 3.293-23.495 5.697-31.855.95-3.307 2.128-7.401 2.106-8.66-.206-.624-.533-1.131-2.572-1.131-1.166 0-2.652.204-4.418.605-15.395 3.499-59.688 17.089-66.223 29.918-7.336 14.401 1.809 45.346 4.69 49.413 4.202 3.488 54.043 29.748 85.586 40.363 5.791 1.949 11.479 3.741 16.978 5.475 25.173 7.932 46.913 14.783 58.981 30.606 12.135 15.911 13.474 22.964 14.193 26.753.087.458.177.932.244 1.134 1.194 3.583 1.546 52.479-.408 57.17-2.205 5.292-12.564 17.119-28.988 17.789-2.711.109-12.758.165-29.861.165zm-247.8-9.821c7.255.896 168.866 1.946 247.8 1.946 21.17 0 27.749-.087 29.541-.161 13.544-.553 20.957-10.643 21.986-12.83 1.116-4.833.972-47.388.203-51.953-.2-.644-.322-1.292-.452-1.973-.556-2.927-1.712-9.015-12.719-23.447-10.555-13.838-31.19-20.341-55.086-27.871-5.535-1.744-11.26-3.548-17.123-5.521-30.805-10.367-85.569-38.331-89.122-42.771-4.499-5.624-14.774-40.151-5.66-58.042 9.8-19.236 70.882-33.883 71.494-34.022 2.371-.539 4.387-.801 6.163-.801 6.997 0 9.365 4.301 10.154 6.864.799 2.598-.073 5.855-2.121 12.978-2.274 7.911-5.39 18.745-5.39 29.679 0 3.491 1.241 5.853 3.907 7.432 2.5 1.482 6.239 2.265 10.812 2.265 7.079 0 13.621-1.802 15.549-2.766 3.75-2.45 14.966-26.2 18.651-34.004 2.67-5.652 3.349-7.05 3.884-7.799 2.487-3.483 37.74-23.204 46.567-26.051 2.782-.897 5.488-1.353 8.044-1.353 7.788 0 12.312 4.048 12.756 8.046.612 5.508-15.903 33.049-21.232 41.044-8.633 12.949-14.135 26.244-14.717 35.565-.44 7.042 13.94 27.705 18.094 32.762 6.187 3.27 64.652 23.792 77.545 26.79 1.3.302 2.627.456 3.946.456 9.199 0 16.593-7.373 18.245-10.058 1.855-3.751 5.524-36.333 4.686-41.926-.888-5.917-5.406-27.351-26.289-54.76-28.833-37.842-40.594-43.747-55.246-48.436-1.477-.472-5.884-1.036-18.496-1.036-12.337 0-28.88.522-46.393 1.075-4.843.153-9.747.308-14.641.454-5.436.163-10.86.32-16.185.474-28.422.822-60.61 1.753-64.765 2.902-4.632 2.259-66.379 33.855-110.925 58.537-21.943 12.159-46.358 25.448-65.975 36.126-17.941 9.767-33.437 18.201-35.226 19.368-6.798 4.433-21.583 16.815-26.828 22.934-3.892 4.541-4.196 8.079-1.25 14.56 1.514 3.332 15.995 10.923 21.447 13.781 6.495 3.405 8.062 4.261 8.985 5.646 1.597 2.395 1.12 5.333-3.402 20.959-.935 3.23-1.818 6.281-2.178 7.901-.904 4.065-2.952 29.288 9.127 51.03 7.349 13.229 21.261 21.948 41.351 25.915l.484.092z"></path></svg>
