<svg xmlns="http://www.w3.org/2000/svg" width="500" height="375" viewBox="0 0 500 375" class="f1-svg-track"><path class="f1-svg-track__outline" d="M354.029 306.379c-1.768 0-3.479-.097-5.086-.288-7.458-.891-17.841-5.481-31.743-14.034l-.314-.215c-11.144-8.442-18.616-13.707-22.209-15.648-1.84-1.004-2.798-1.164-3.14-1.185-.683.935-1.509 2.74-1.941 6.274-.579 4.674-3.094 9.146-7.474 13.299-2.62 2.432-5.759 3.65-9.359 3.65-3.355 0-6.97-1.047-11.047-3.202-6.812-3.6-16.008-8.439-27.583-14.517-11.704-6.186-29.476-17.975-52.828-35.044-35.636-26.044-37.306-28.932-38.203-30.482-1.736-3.016-3.033-7.414-3.969-13.451-.024-.156-.039-.314-.045-.473-.188-5.672-.454-10.583-.79-14.598-.494-1.547-4.862-8.767-39.238-39.101l-36.993-33.042c-16.946-6.377-28.245-10.745-33.595-12.988-7.456-2.541-13.255-4.818-17.239-6.769-11.169-5.49-12.044-11.537-10.811-15.644 2.071-6.788 6.023-9.146 8.974-9.934 1.841-.501 4.92-.491 10.315 0 2.084.202 7.299 1.667 30.343 11.019 21.64 8.757 28.661 11.348 30.645 11.929 12.385 1.79 26.542 4.555 42.085 8.219 15.635 3.655 34.115 9.328 54.924 16.86 25.47 9.188 32.758 11.529 34.386 11.874 1.253.27 4.156.895 56.479 22.996 52.593 22.152 55.2 24.49 56.454 25.614 2.951 2.677 4.442 6.038 4.327 9.735-.027.869.036 1.403.094 1.699 2.258 1.104 11.307 5.181 43.48 19.077 38.487 16.59 45.744 20.491 47.765 22.037 2.762 2.041 7.781 6.359 15.297 13.164 9.466 8.563 11.815 9.964 12.311 10.19.231.093.933.311 2.429.311.874 0 1.894-.074 3.029-.219 2.025-.259 6.396-1.415 15.724-5.458 9.034-3.981 15.349-4.963 19.771-3.092 4.175 1.769 7.331 4.792 9.378 8.984 2.109 4.369 1.779 9.792-.971 16.133-1.942 4.369-7.837 10.8-36.554 22.135-21.097 8.272-33.815 12.713-38.891 13.579-5.687.961-11.465-.151-17.142-3.28-5.496-3.049-8.616-3.788-10.267-3.872l-.275-.006c-1.94 0-6.698.71-18.35 4.095-8.412 2.435-15.864 3.669-22.153 3.669zm-32.542-20.929c12.651 7.77 22.202 12.083 28.39 12.822 6.235.744 14.394-.312 24.111-3.127 11.021-3.202 17.719-4.57 21.223-4.389 3.659.187 8.133 1.771 13.675 4.845 4.097 2.258 8.106 3.07 12.012 2.408 3.071-.524 12.046-3.231 37.327-13.145 26.529-10.471 31.374-16.058 32.227-17.974 1.783-4.113 2.157-7.33 1.098-9.528-1.199-2.454-2.957-4.151-5.367-5.172-.312-.132-.891-.29-1.872-.29-1.86 0-5.397.581-11.675 3.347-8.307 3.6-14.146 5.576-17.878 6.053-4.07.521-7.106.329-9.411-.605-1.611-.637-4.525-2.499-14.641-11.649-7.221-6.538-12.18-10.813-14.743-12.708-1.384-1.057-9.146-5.148-46.153-21.101-43.41-18.748-44.554-19.54-45.236-20.013-3.268-2.384-3.133-6.789-3.089-8.236.028-.941-.142-2.203-1.73-3.644-1.356-1.061-10.3-5.698-54.241-24.207-44.58-18.83-53.643-22.213-55.077-22.554-1.734-.368-7.321-2.036-35.404-12.166-20.521-7.428-38.704-13.013-54.047-16.6-15.431-3.638-29.446-6.371-41.661-8.127-.156-.022-.31-.054-.462-.095-1.774-.477-6.997-2.27-31.765-12.293-22.47-9.116-27.158-10.363-28.129-10.475-2.416-.22-4.377-.333-5.798-.333-1.297 0-1.72.096-1.737.1-.564.15-2.252.601-3.475 4.608-.723 2.409 4.979 5.429 6.743 6.297 3.702 1.813 9.233 3.977 16.437 6.428l.257.098c5.275 2.217 16.759 6.655 34.132 13.188.454.171.873.425 1.236.749l37.523 33.516c41.191 36.348 41.618 41.457 41.847 44.201.347 4.11.622 9.118.815 14.883.945 5.979 2.11 8.967 2.938 10.431.848 1.161 6.094 6.217 36.063 28.121 23.048 16.845 40.493 28.431 51.853 34.434 11.573 6.077 20.775 10.92 27.592 14.522 2.875 1.52 5.354 2.29 7.368 2.29 1.593 0 2.855-.483 3.973-1.519 2.989-2.835 4.697-5.711 5.045-8.52.562-4.578 1.788-7.985 3.749-10.413 1.409-1.779 3.521-2.775 5.926-2.775 2.056 0 4.339.701 6.979 2.142 3.968 2.144 11.515 7.439 23.052 16.175z"></path></svg>
