<svg xmlns="http://www.w3.org/2000/svg" width="500" height="375" viewBox="0 0 500 375" class="f1-svg-track"><g><path class="f1-svg-track__outline" d="M196.949 153.689l-7.363-2.789c19.337-51.056 29.439-77.621 30.884-81.215 1.489-3.657 3.971-7.631 7.38-11.828 3.563-4.338 7.643-8.287 12.139-11.754 11.301-8.718 22.483-12.499 33.228-11.242 10.71 1.293 18.418 5.868 22.922 13.599 1.771 2.963 2.874 6.229 3.261 9.67.402 3.152.116 6.042-.857 8.532-1.802 4.699-5.351 7.78-10.255 8.884-3.6.813-8.977.613-14.138-4.952-2.319-2.5-4.518-3.724-6.547-3.69-1.324.033-2.158.408-2.771 2.292-1.093 3.239-.247 4.7.031 5.18.762 1.316 2.638 3.697 7.252 7.574 3.155 2.62 7.61 3.402 13.604 2.373 3.278-.553 19.232-4.397 47.43-11.427 38.4-9.57 42.245-9.229 43.887-9.083 2.668.297 8.065 1.522 25.088 8.792 6.835 2.89 16.61 7.221 29.041 12.867 2.489 1.088 5.958 2.508 10.26 4.197l-2.878 7.329c-4.395-1.725-7.956-3.184-10.588-4.334-12.418-5.64-22.129-9.943-28.915-12.811-14.827-6.334-20.579-7.958-22.795-8.206-1.19-.095-7.787.562-41.195 8.888-28.793 7.178-44.498 10.956-48.013 11.549-8.273 1.418-14.995.042-19.973-4.092-4.487-3.769-7.432-6.928-9.02-9.673-1.931-3.333-2.163-7.237-.69-11.6 1.567-4.818 5.14-7.562 10.047-7.686 4.389-.118 8.595 1.978 12.518 6.207 2.802 3.021 5.017 2.991 6.634 2.626 2.342-.527 3.773-1.775 4.645-4.047.497-1.271.622-2.862.382-4.751-.271-2.409-.996-4.55-2.225-6.606-3.263-5.6-8.84-8.787-17.07-9.781-8.617-1.011-17.873 2.239-27.489 9.658-4.026 3.104-7.676 6.638-10.849 10.5-2.907 3.578-4.99 6.88-6.18 9.801-1.401 3.478-11.772 30.753-30.822 81.049zM232.896 274.73c-1.483-3.534-2.612-7.315-3.354-11.238-.901-4.508-.512-8.459 1.165-11.704 1.653-3.308 5.433-6.161 11.528-8.675 3.434-1.432 11.734-4.721 25.361-10.048l.15-.056c18.482-6.372 32.047-12.445 40.316-18.05 7.377-4.965 10.672-10.369 10.082-16.529-.725-6.815-5.186-15.353-13.257-25.332-9.401-11.63-12.401-23.838-8.916-36.286 3.367-11.873 9.05-21.533 16.896-28.724 7.936-7.271 15.126-11.369 21.982-12.527 6.274-1.059 11.622-1.51 15.906-1.335 2.865.146 10.653 1.797 45.537 14.407 31.076 11.232 42.403 13.298 46.436 13.031 5.675-.358 10.159-1.664 13.329-3.88 3.327-2.351 6.162-5.222 8.411-8.522l.001-.003c-.268-.534-1.862-2.862-10.354-6.52-6.047-2.192-11.269-4.117-15.522-5.723l2.782-7.366c4.245 1.603 9.471 3.529 15.53 5.725l.211.084c9.13 3.918 13.744 7.53 14.962 11.712.655 2.249.273 4.505-1.104 6.525-2.779 4.08-6.275 7.623-10.389 10.53-4.388 3.067-10.224 4.845-17.361 5.296-4.491.285-14.528-.804-49.608-13.484-32.902-11.894-41.202-13.843-43.221-13.947-3.696-.15-8.499.266-14.234 1.234-5.239.885-11.287 4.441-17.975 10.568-6.753 6.19-11.677 14.62-14.637 25.055-2.793 9.978-.354 19.534 7.461 29.201 9.167 11.335 14.063 20.982 14.968 29.491.882 9.211-3.665 17.219-13.509 23.844-8.821 5.979-22.983 12.355-42.081 18.943-13.342 5.215-21.798 8.566-25.138 9.958-5.733 2.365-7.173 4.263-7.526 4.97-.859 1.665-1.005 3.881-.455 6.632.647 3.42 1.616 6.669 2.887 9.696l-7.26 3.047zM237.564 324.435c-70.715 0-144.065-.144-218.016-.427-9.112 0-14.954-1.955-17.845-5.977-2.031-2.853-4.027-8.652 5.307-15.599 5.41-4.08 12.434-6.975 20.855-8.589 8.049-1.627 16.476-2.407 24.976-2.332 8.157 0 19.846.186 34.7.552 14.814.323 24.847.469 29.809.426 9.466-.142 14.069-1.141 16.261-1.954 1.48-.531 2.639-2.207 3.376-3.574l7.663-17.857c6.848-17.977 19.017-50.006 36.505-96.089 2.976-7.825 5.787-15.2 8.435-22.125l7.355 2.811c-2.646 6.922-5.457 14.292-8.43 22.11-17.514 46.15-29.693 78.208-36.536 96.172l-.062.151-7.762 18.085-.135.284c-2.013 3.817-4.608 6.316-7.713 7.429-4.044 1.5-10.229 2.3-18.866 2.43-5.14.043-14.97-.098-30.083-.428-14.802-.365-26.425-.549-34.557-.549-8.006-.079-15.865.657-23.415 2.184-7.269 1.393-13.195 3.801-17.656 7.165-.778.58-4.519 3.46-3.624 4.717.445.619 2.616 2.684 11.456 2.684 73.956.284 147.296.427 218.001.427 139.704 0 217.646-.713 231.659-2.118 6.966-.714 12.261-3.255 16.177-7.768 3.38-3.871 5.512-9.031 6.342-15.346.747-5.716.402-11.606-1.023-17.502-1.264-5.348-3.021-9.252-5.228-11.625-4.25-4.635-10.208-7.037-18.234-7.363-3.41-.141-6.396.22-8.889 1.074-1.382.51-3.282 1.449-4.017 2.858-1.064 2.158-.575 5.213 1.492 9.008.175.33.722 1.271 2.57 3.892 1.859 2.508 3.016 5.403 3.382 8.531.284 2.754-.684 7.521-10.295 9.107-2.477.393-10.466.856-51.342.357-10.909-.202-33.718-.777-67.816-1.711-34.048-.973-56.586-1.568-66.994-1.771-11.085-.26-18.532-1.26-22.783-3.061-4.667-1.957-7.896-4.718-9.583-8.203l7.087-3.432c.826 1.707 2.695 3.181 5.555 4.379 2.263.958 7.538 2.155 19.894 2.444 10.416.203 32.979.799 67.045 1.772 34.072.934 56.856 1.509 67.718 1.709 37.11.453 47.655.109 49.961-.257 2.124-.351 3.175-.786 3.646-1.042-.266-1.498-.876-2.893-1.854-4.212-2.151-3.049-2.812-4.187-3.128-4.783-3.341-6.131-3.879-11.627-1.574-16.291 1.56-2.999 4.373-5.233 8.4-6.715 3.507-1.203 7.465-1.703 11.848-1.523 10.084.41 18.057 3.736 23.696 9.889 3.173 3.41 5.502 8.368 7.102 15.134 1.648 6.82 2.045 13.675 1.172 20.356-1.037 7.884-3.799 14.441-8.21 19.493-5.21 6.002-12.386 9.515-21.321 10.431-14.484 1.456-90.517 2.162-232.454 2.162z"></path></g></svg>
