<svg xmlns="http://www.w3.org/2000/svg" width="500" height="375" viewBox="0 0 500 375" class="f1-svg-track"><path class="f1-svg-track__outline" d="M129.912 317.968c-1.705 0-3.469-.04-5.242-.119-6.703-.321-13.985-1.052-21.658-2.171-8.011-1.186-15.346-3.964-21.809-8.257-5.702-3.717-10.688-8.593-14.792-14.473-3.617-5.137-6.53-10.358-8.646-15.505-1.985-4.796-3.597-10.395-4.788-16.634-3.396-16.86-6.064-33.996-7.924-50.893l-.771-7.179c-1.025-9.271-1.717-15.553-2.073-18.832-.687-6.031-1.07-8.121-1.226-8.806-.494-.655-1.104-1.221-1.832-1.684-.934-.594-2.252-1.103-3.917-1.511-2.909-.688-5.947-3.044-13.365-24.864-5.989-15.368-11.546-29.596-16.671-42.681-5.607-14.322-6.668-24.662-3.241-31.609 3.299-6.826 8.601-11.494 15.746-13.846 6.235-2.104 13.806-3.871 22.473-5.243 3.507-.598 7.827-1.148 12.793-1.63 4.967-.523 10.4-.711 16.128-.548 6.819.238 12.118 2.716 15.778 7.362 3.092 3.889 10.525 16.932 22.713 39.86 11.232 20.992 19.461 34.343 24.453 39.673 7.072 7.615 25.602 24.415 55.087 49.944 15.391 13.388 27.434 23.624 35.802 30.427 10.532 8.679 12.973 10.062 13.47 10.28 4.073 1.764 6.264 2.38 7.385 2.586.179.028.463.05.767.05 1.159 0 2.587-.3 4.245-.894 3.541-1.265 7.119-1.364 10.515-.299 3.334.957 6.367 2.934 9.018 5.873 2.379 2.73 3.643 3.436 4.078 3.613.205.084 1.444.503 5.718.503.625 0 1.288-.008 1.988-.026 4.891-.08 15.615-.12 31.908-.12 16.276 0 38.58.04 66.293.119 81.896.159 94.9.672 97.558 1.045 16.007 2.241 24.123 8.377 24.123 18.233.045 4.375-.603 8.583-1.927 12.466-1.445 4.244-3.757 8.371-6.872 12.265-3.248 4.104-7.781 8.026-13.458 11.643-5.717 3.66-12.117 6.727-19.014 9.108-7.661 2.651-19.479 4.039-36.125 4.243-16.087-.141-30.427-.211-42.705-.211-4.958 0-9.626.011-14.009.034-6.205.038-13.387.059-21.344.059h-33.23c-14.807 0-24.354.06-28.378.176l-.114.002c-.593 0-5.692-.021-15.298-.06-4.458-.032-8.895-.048-13.316-.048-6.629 0-13.329.036-19.915.107-17.876.175-30.29.264-36.9.264-3.511 0-5.139-.01-6.027-.073-8.736.48-13.798.634-15.713.513-1.744-.135-3.27-.648-4.582-1.533-2.006-1.302-3.103-3.395-3.008-5.752.039-1.318.068-2.426.088-3.312-1.344 1.274-2.565 2.504-3.63 3.654-1.575 1.658-3.89 3.993-7.113 7.175-3.787 3.695-8.789 5.954-14.884 6.732-3.94.533-8.192.804-12.61.804zm-92.196-153.555c2.272.606 4.123 1.38 5.665 2.361 1.764 1.122 3.25 2.581 4.42 4.337.611.95 1.066 1.656 2.235 11.926.357 3.297 1.049 9.572 2.075 18.849l.772 7.179c1.833 16.656 4.465 33.559 7.822 50.229 1.098 5.754 2.556 10.837 4.339 15.146 1.897 4.613 4.526 9.316 7.815 13.989 3.532 5.062 7.792 9.233 12.672 12.413 5.52 3.668 11.776 6.032 18.625 7.045 7.414 1.081 14.44 1.788 20.877 2.097 5.857.259 11.432.054 16.465-.622 4.448-.569 7.839-2.054 10.392-4.545 3.102-3.062 5.423-5.403 6.884-6.94 1.482-1.604 3.272-3.374 5.284-5.222 1.983-1.784 3.86-2.638 5.771-2.638 1.648 0 3.211.679 4.403 1.91 1.625 1.622 1.819 4.065 1.819 5.758 0 .866-.031 2.387-.096 4.633l.25.031c.252.017.664.022 1.186.022 2.457 0 7.125-.188 13.874-.562.256-.016.515-.003.769.032.321.017 1.454.048 5.356.048 6.585 0 18.973-.089 36.819-.264 6.611-.071 13.339-.107 19.996-.107 4.44 0 8.895.016 13.36.048 9.323.038 14.392.059 15.198.06 4.131-.118 13.735-.178 28.548-.178h33.23c7.941 0 15.107-.021 21.299-.059 4.399-.023 9.081-.034 14.054-.034 12.301 0 26.665.07 42.691.211 15.488-.189 26.809-1.472 33.566-3.812 6.312-2.179 12.148-4.972 17.349-8.303 4.942-3.147 8.821-6.48 11.536-9.909 2.555-3.194 4.428-6.521 5.579-9.9 1.036-3.04 1.543-6.364 1.507-9.886 0-5.354-5.834-8.865-17.34-10.478-2.58-.36-21.414-.821-96.485-.968-27.709-.079-50.006-.119-66.275-.119-16.251 0-26.931.04-31.744.118-.735.02-1.464.029-2.152.029-4.123 0-6.889-.348-8.706-1.093-2.135-.875-4.419-2.732-6.984-5.677-1.636-1.814-3.395-2.987-5.332-3.536l-.12-.036c-1.79-.568-3.586-.503-5.538.191-3.428 1.227-6.384 1.611-9.006 1.187-2.327-.427-5.299-1.442-9.166-3.118-1.537-.663-4.564-2.539-15.332-11.413-8.415-6.842-20.525-17.134-35.975-30.573-30.112-26.072-48.329-42.6-55.685-50.521-5.527-5.901-13.918-19.427-25.642-41.338-14.692-27.641-20.038-36.289-21.937-38.677-2.202-2.797-5.421-4.224-9.852-4.38-5.259-.146-10.423.021-15.086.513-4.812.467-8.942.993-12.31 1.566-8.277 1.31-15.414 2.97-21.259 4.943-5.138 1.69-8.779 4.903-11.16 9.829-1.636 3.317-2.343 10.367 3.498 25.284 5.134 13.11 10.704 27.369 16.707 42.772l.06.164c5.181 15.26 7.645 19.077 8.415 19.988z"></path></svg>
