<svg xmlns="http://www.w3.org/2000/svg" width="500" height="375" viewBox="0 0 500 375" class="f1-svg-track"><path class="f1-svg-track__outline" d="M395.46 347.456c-1.376 0-2.747-.352-4.443-1.141-3.58-1.661-9.557-5.097-9.346-9.422.02-.677.472-101.668.241-105.828-.162-1.719-2.784-4.503-9.645-6.946-11.098-3.959-20.885-11.195-25.544-18.888-1.131-1.868-1.978-3.731-2.797-5.535-2.415-5.314-4.5-9.904-13.567-13.748-4.272-1.811-11.453-2.021-16.482-2.021-3.441 0-7.027.115-10.495.226-3.378.106-6.57.208-9.564.208-6.49 0-10.435-.5-13.19-1.675-9.743-4.145-15.513-9.406-18.156-16.559-.236-.642-.472-1.312-.715-2.003-1.562-4.447-3.334-9.488-6.965-11.098-14.419-6.402-48.744-20.6-56.836-21.095-2.794-.171-40.672-1.095-71.108-1.837-20.366-.497-37.954-.926-40.767-1.025-3.629-.128-14.671-.519-16.921-11.624-.658-3.253-2.646-13.698-4.569-23.8-1.738-9.135-3.381-17.763-3.769-19.644-.403-1.946-.617-2.235-1.653-2.774-.76.158-2.441 1.04-3.169 2.335l-.185.33c-2.079 3.704-5.22 9.302-10.117 10.423-.659.151-1.366.229-2.097.229-2.471 0-4.922-.855-7.292-1.684-1.502-.524-2.921-1.02-4.115-1.216-1.557-.254-5.404-.3-9.125-.344-13.527-.159-18.854-.507-21.139-3.546-3.332-4.435-1.581-11.012-.422-15.364 2.248-8.448 13.008-31.088 35.514-34.328 2.459-.354 6.296-.519 12.075-.519 10.901 0 27.66.615 47.063 1.326 17.392.638 37.104 1.359 57.759 1.846 15.359.362 32.104.546 49.768.546 32.219 0 67.728-.588 108.553-1.798 7.358-.218 14.913-.324 23.096-.324 10.638 0 20.533.178 30.102.35 7.365.132 14.322.257 20.984.286 53.975.241 84.546.97 88.229 1.289 2.503.219 6.122.866 8.678 3.951 2.271 2.741 3.106 6.76 2.554 12.286-.9 9.032-.521 14.457-.142 16.119.676.485 2.027 1.296 3.062 1.917 5.15 3.091 10.987 6.595 11.188 11.463.194 4.867-2.577 28.045-7.729 42.155-4.48 12.267-10.325 24.817-15.979 36.954-3.621 7.774-7.365 15.812-10.723 23.717-25.142 59.167-51.966 108.929-54.403 113.42-.934 2.992.045 3.48.523 3.719 3.318 1.651 6.088 2.854 8.532 3.917 6.36 2.763 10.957 4.759 11.82 10.402.712 4.648-3.876 9.301-11.518 16.408-1.419 1.32-2.76 2.567-3.826 3.64-2.181 2.19-5.949 5.482-9.274 8.386-2.188 1.912-4.255 3.717-5.379 4.784-1.644 1.559-3.711 3.154-6.575 3.154zm-5.914-11.282c.823.746 2.748 2.054 4.788 3.001.622.288.939.373 1.066.397.136-.071.497-.301 1.217-.983 1.242-1.178 3.27-2.949 5.619-5.002 3.228-2.819 6.886-6.014 8.874-8.011 1.172-1.179 2.567-2.476 4.043-3.85 2.905-2.702 8.227-7.652 9.026-9.723-.409-1.104-2.326-2.025-7.104-4.101-2.406-1.045-5.401-2.347-8.904-4.09-4.798-2.391-6.434-7.469-4.376-13.585.074-.219.167-.431.277-.633.279-.51 28.168-51.685 54.242-113.05 3.412-8.026 7.184-16.128 10.833-23.96 5.583-11.987 11.356-24.382 15.72-36.332 4.846-13.271 7.283-34.493 7.263-38.844-.889-1.426-5.411-4.141-7.378-5.322-3.417-2.051-4.965-3.022-5.827-4.556-2.277-4.06-1.371-16.048-.876-21.014.43-4.299-.305-5.904-.781-6.479-.324-.39-1.017-.932-3.298-1.131-3.111-.27-32.737-1.015-87.583-1.26-6.715-.03-13.697-.155-21.089-.288-9.535-.171-19.394-.348-29.961-.348-8.105 0-15.583.105-22.863.32-40.904 1.213-76.488 1.802-108.787 1.802-17.725 0-34.532-.185-49.953-.548-20.707-.487-40.446-1.211-57.861-1.85-19.327-.708-36.018-1.32-46.775-1.32-5.247 0-8.932.147-10.954.438-21.677 3.126-28.959 28.309-29.026 28.563-.479 1.798-1.676 6.295-1.119 8.136 2.604.729 10.681.824 15.163.878 4.378.053 8.159.097 10.303.446 1.871.308 3.684.941 5.438 1.553 1.751.611 3.561 1.243 4.696 1.243.183-.001.291-.019.338-.029.994-.228 2.679-2.448 5.009-6.602l.189-.337c2.043-3.634 6.443-6.375 10.233-6.375 1.074 0 2.059.222 2.929.658 2.639 1.323 5.104 2.965 6.234 8.424.4 1.942 2.048 10.6 3.792 19.764 1.919 10.08 3.903 20.503 4.552 23.71.491 2.428 1.67 5.041 9.481 5.317 2.77.098 20.339.526 40.682 1.022 32.088.782 68.458 1.669 71.396 1.85 11.899.727 59.074 21.547 59.547 21.756 6.74 2.986 9.318 10.326 11.202 15.685.229.653.451 1.285.673 1.888 1.839 4.975 6.242 8.802 13.854 12.04 2.455 1.046 8.213 1.046 10.105 1.046 2.869 0 6-.1 9.314-.204 3.529-.113 7.178-.229 10.745-.229 9.209 0 15.239.816 19.555 2.646 11.894 5.042 14.958 11.788 17.663 17.74.758 1.668 1.474 3.244 2.363 4.713 3.707 6.119 12.127 12.224 21.453 15.55 11.6 4.132 14.477 9.733 14.847 13.705.278 2.927-.132 94.616-.209 105.765z"></path></svg>
