<svg xmlns="http://www.w3.org/2000/svg" width="500" height="500" viewBox="0 0 500 500" class="f1-svg-track"><g><path class="f1-svg-track__outline" d="M90.923 417.518c-3.438 0-5.608-1.742-6.765-3.076-1.77-1.945-3.178-4.51-4.303-7.838-.083-.254-.908-2.32-8.019-8.221-.741-.551-4.018-3.078-22.295-17.355-9.098-7.072-14.199-13.096-15.59-18.412-1.435-5.484-.731-10.52 2.092-14.965.526-.814 1.586-2.449-2.391-6.01-4.3-3.811-10.03-8.615-17.018-14.26l-.297-.268c-9.43-9.346-17.574-17.418-16.184-25.619.58-3.43 3.122-6.477 6.342-10.336 1.816-2.178 3.875-4.646 5.693-7.373 4.193-6.293 7.589-11.129 11.887-17.25l2.074-2.953c3.189-4.549 5.827-8.803 11.081-17.275 3.56-5.742 8.436-13.605 15.54-24.875 24.711-39.274 25.674-39.846 26.894-40.567 1.589-.928 4.197-1.599 7.716.397.77.46 2.017 1.307 5.555 4.209 1.333 1.083 8.012 6.847 20.403 17.611 15.973 14.263 19.835 15.628 20.447 15.757 1.045.146 2.276.029 3.76-1.87 1.854-2.473 7.11-10.61 15.575-24.122 8.515-13.694 13.042-20.981 13.576-21.845.899-1.523 2.646-2.946 5.622-4.545 3.604-1.976 8.864-.751 17.556 4.109 7.042 3.952 15.624 9.074 25.514 15.229 1.629.896 3.237 1.792 4.825 2.689 14.326 8.045 26.82 15.23 37.127 21.349 11.172 6.623 20.466 10.973 27.621 12.926 7.191 1.966 25.912 3.396 55.646 4.248l86.476 2.401c2.18-.227 4.457-1.576 6.774-4.019 1.274-1.343 3.271-5.234 2.329-16.221-.826-9.173-3.8-20.517-8.834-33.702-2.828-7.172-4.932-12.532-6.291-16.036-2.428-6.195-4.241-11.534-5.386-15.856-2.655-9.797-2.737-21.024-.237-33.347.992-4.922 2.296-9.327 3.871-13.09 1.771-4.274 3.473-6.772 5.51-8.087 5.188-3.372 8.884-1.758 10.623-.496 1.445 1.102 3.65 3.349 8.592 11.523 2.575 4.305 5.694 7.285 9.282 8.877 1.354.626 4.277 1.562 10.823 2.614 3.436.579 7.953 2.68 10.148 9.427.4 1.161 1.064 4.028 2.875 15.718 5.746 39.352 10.463 71.938 14.025 96.882l-7.795 1.113c-3.562-24.938-8.277-57.514-14.017-96.823-1.815-11.724-2.398-13.928-2.533-14.322l-.035-.104c-1.039-3.22-2.579-3.89-3.948-4.12-6.021-.967-10.214-2.02-12.793-3.212-5.045-2.237-9.364-6.28-12.781-11.99-4.43-7.329-6.121-8.94-6.539-9.263.036.039-.479.026-1.647.786-.03.021-.968.758-2.522 4.507-1.381 3.297-2.529 7.203-3.421 11.621-2.255 11.115-2.212 21.122.126 29.748 1.073 4.057 2.792 9.106 5.115 15.033 1.361 3.508 3.459 8.855 6.296 16.05 5.308 13.899 8.444 25.951 9.337 35.86.934 10.887-.526 18.187-4.462 22.331-3.768 3.969-7.828 6.143-12.069 6.465l-.406.01-86.707-2.408c-30.79-.883-49.597-2.361-57.499-4.523-7.944-2.168-17.615-6.666-29.563-13.749-10.255-6.088-22.693-13.24-36.975-21.26-1.603-.905-3.216-1.803-4.851-2.703l-.181-.106c-9.827-6.116-18.336-11.196-25.29-15.1-7.271-4.064-9.69-4.036-10.085-3.986-1.901 1.033-2.462 1.602-2.557 1.707-.751 1.213-5.265 8.478-13.585 21.859-8.709 13.902-13.941 21.99-16.003 24.74-3.759 4.81-8.146 5.294-11.172 4.87-2.842-.429-7.938-2.854-24.491-17.636-12.113-10.521-18.916-16.395-20.178-17.419-2.82-2.313-3.961-3.132-4.398-3.417-1.995 2.774-7.795 11.521-24.124 37.474-7.091 11.247-11.958 19.097-15.511 24.829-5.333 8.598-8.01 12.914-11.327 17.646l-2.076 2.957c-4.435 6.314-7.639 10.877-11.778 17.09-2.054 3.082-4.257 5.723-6.2 8.053-2.062 2.471-4.399 5.271-4.625 6.605-.702 4.145 6.98 11.791 13.822 18.572 7.01 5.668 12.779 10.506 17.15 14.381 7.84 7.018 5.734 13.123 3.782 16.139-1.607 2.531-1.974 5.393-1.103 8.723.52 1.986 2.873 6.469 12.812 14.193 17.281 13.5 21.592 16.836 22.133 17.232l.257.197c8.112 6.719 9.902 9.875 10.556 11.873.753 2.227 1.657 3.936 2.677 5.045l.099.111c.16.188.562.66 2.301.08 1.134-1.756 4.422-10.104 9.572-49.482 4.47-34.172 7.939-55.439 10.61-65.02 1.586-5.846 3.789-12.455 6.54-19.623 1.65-4.375 3.542-9.061 5.613-13.908 6.46-15.291 11.322-21.533 16.774-21.533l.176-.002c4.19 0 8.787 1.844 13.997 5.633 4.5 3.273 7.847 5.74 9.946 7.336 1.974 1.461 9.619 6.729 22.687 15.629 16.113 10.979 21.355 14.15 22.915 14.879 2.073 1.002 4.999 1.666 8.746 1.994 4.209.324 8.54.676 12.956 1.047l-.66 7.848c-4.397-.371-8.712-.721-12.942-1.047-4.81-.422-8.551-1.314-11.479-2.73-1.666-.775-6.022-3.254-23.97-15.482-13.337-9.084-20.853-14.266-22.977-15.838-2.095-1.59-5.397-4.025-9.854-7.266-3.679-2.676-6.904-4.1-9.345-4.127-.61.307-3.702 2.484-9.726 16.74-2.033 4.758-3.882 9.338-5.5 13.629-2.664 6.939-4.784 13.295-6.308 18.91-2.541 9.115-6.035 30.623-10.395 63.953-2.207 16.873-4.304 29.893-6.233 38.699-2.778 12.682-4.934 15.795-7.719 16.889-1.859.741-3.489 1.036-4.904 1.036zM465.431 332.023l-.132-.002c-45.955-1.541-72.062-2.615-79.812-3.285-6.061-.482-10.705-3.73-13.404-9.395-.736-1.52-1.354-3.361-1.83-5.453-.308-1.367-.437-1.891-.486-2.08-.072-.205-.129-.414-.167-.631-.189-1.057-.398-2.051-.624-2.953l-.043-.193c-.263-1.338-.77-2.404-1.547-3.254-.479-.342-3.143-1.818-15.586-4.197-10.379-1.977-18.433-3.521-24.159-4.633-4.727-.953-5.644.686-6.231 2.602-1.459 4.709-3.534 10.582-6.171 17.467-1.335 3.955-3.383 6.615-6.088 7.904l-.097.045c-1.297.576-3.065.832-5.734.832-1.677 0-7.642-.264-18.235-.807-11.939-.574-22.035-1.18-29.995-1.799-11.689-.885-15.9-7.168-17.373-12.285-.661-2.344-.911-5.033-.768-8.242.115-2.588.08-4.777-.104-6.51l-.033-.334c-.85-.154-2.284-.381-4.698-.686l.99-7.812c5.107.648 6.615 1.023 7.416 1.303 2.434.809 3.854 3.098 4.163 6.785.218 2.033.266 4.623.133 7.604-.104 2.324.056 4.254.474 5.734.729 2.537 2.609 6.002 10.403 6.592 7.891.613 17.908 1.215 29.783 1.785 10.325.529 16.325.799 17.845.799 1.623 0 2.329-.121 2.55-.172.346-.219 1.143-.955 1.928-3.312l.059-.164c2.591-6.758 4.619-12.494 6.03-17.049 2.036-6.631 7.61-9.553 15.284-8.004 5.692 1.105 13.736 2.648 24.105 4.623 15.486 2.961 18.352 4.914 19.823 6.514 1.776 1.887 2.977 4.271 3.541 7.055.239.971.463 2.018.664 3.117.173.59.356 1.402.63 2.619.341 1.504.762 2.779 1.247 3.783 1.512 3.17 3.654 4.691 6.957 4.955 7.529.65 34.219 1.746 79.358 3.262 2.341-.004 3.697-.225 4.434-.414 1.451-.436 2.706-1.197 3.835-2.326 5.834-5.914 9.521-9.744 10.941-11.361 6.932-7.748 7.393-10.129 7.423-10.375-.025-1.279-1.191-11.533-8.734-64.971l7.797-1.1c7.808 55.312 8.809 64.398 8.809 66.135 0 2.484-1.116 6.273-9.401 15.533-1.518 1.729-5.204 5.561-11.247 11.688-2.088 2.088-4.52 3.543-7.249 4.346l-.102.029c-1.749.462-3.898.688-6.572.688z"></path></g></svg>
