<svg xmlns="http://www.w3.org/2000/svg" width="500" height="375" viewBox="0 0 500 375" class="f1-svg-track"><path class="f1-svg-track__outline" d="M36.367 345.054c-4.325 0-8.801-3.233-10.408-7.522-.922-2.459-2.938-4.438-3.994-4.438-.849.09-2.082.35-3.388.626-2.675.566-5.706 1.207-8.396 1.207-2.776 0-4.824-.699-6.262-2.138-3.397-3.397-4.594-8.273-3.558-14.492.242-1.453.734-7.479 1.303-14.457 1.282-15.713 3.221-39.458 5.658-54.75 4.948-31.042 31.767-104.507 40.772-127.795 12.038-31.133 39.099-52.095 47.07-55.816 1.394-.65 2.963-1.274 4.482-1.876 2.478-.984 9.06-3.599 8.852-5.06-.186-1.302-1.387-3.915-2.444-6.221-3.024-6.583-7.165-15.598-.348-20.143 1.896-1.265 5.449-2.232 31.877-2.232 14.103 0 31.322.276 49.554.568 18.164.292 36.948.593 52.256.593 33.824 0 140.126-.205 203.639-.327 25.132-.049 42.784-.083 45.027-.083 4.22 0 7.729 2.216 9.882 6.239 2.408 4.499 2.759 10.824.767 13.812-2.53 3.798-11.237 7.898-20.89 7.898-4.242 0-8.179-.789-11.653-1.485-2.521-.506-4.905-.983-6.697-.983-.7 0-1.275.073-1.709.218-1.238.413-2.781.927-1.542 5.47.773 2.835 2.825 10.363-4.071 14.962-4.226 2.816-64.756 29.638-69.645 30.86-5.328 1.332-29.96 3.395-38.234 3.395-3.938 0-23.913.665-30.48 13.8-6.278 12.557-5.771 25.941-5.364 36.696l.042 1.136c.363 9.816-1.649 16.551-5.982 20.016-1.351 1.082-15.964 10.77-27.919 18.511-27.156 17.584-28.901 17.802-30.176 17.961-.282.035-.584.098-.907.161-.949.186-2.13.417-3.54.417-5.787 0-10.696-3.936-15.449-12.386-4.373-7.773-26.958-53.112-45.104-89.542-12.237-24.566-23.797-47.77-24.917-49.691-1.383-2.371-2.425-2.563-3.547-2.563-1.326 0-3.194.465-5.553 1.382-4.178 1.625-5.625 3.402-7.301 5.461-.867 1.066-1.766 2.169-3.005 3.254-3.015 2.639-26.997 27.423-28.605 29.405-1.772 2.214-1.849 5.455-.224 9.631 1.798 4.622 13.106 26.721 20.589 41.344 4.449 8.694 7.663 14.975 8.414 16.625 1.903 4.19 5.581 17.879 4.295 22.376-.933 3.269-4.676 6.163-21.045 11.278-1.608.503-3.328 1.132-4.993 1.74-4.143 1.514-8.056 2.944-11.337 2.944-1.436 0-2.718-.277-3.812-.824-2.759-1.38-5.981-5.973-15.1-26.259l-.65-1.443c-.365-.802-.944-2.075-1.337-2.616-.415.081-1.407.384-3.325 1.513-11.679 6.871-25.854 15.939-28.102 18.316-.57 1.429-2.602 8.058-9.75 37.915l-.472 1.961c-.231 1.206-.133 7.312 2.889 12.683 1.602 2.848 7.432 14.169 14.182 27.278 7.744 15.039 18.349 35.634 19.613 37.53 1.651 2.311 2.241 5.243 1.598 8.016-.529 2.281-2.112 5.512-6.643 7.952-5.596 3.014-30.545 11.382-33.582 11.888-.422.068-.858.104-1.301.104zm-14.402-19.835c5.351 0 9.643 5.359 11.366 9.959.562 1.495 2.284 2.822 3.036 2.822h.021c2.18-1 26.068-8.737 31.126-11.462 1.515-.815 2.476-2.016 2.706-3.005.182-.781-.146-1.495-.356-1.79-1.157-1.621-6.898-12.72-20.186-38.524-6.436-12.497-12.513-24.327-14.044-27.049-4.052-7.202-4.386-15.586-3.664-18.466l.453-1.89c8.872-37.062 9.996-39.029 10.599-40.083 2.267-3.965 22.377-16.081 30.918-21.105 3.091-1.819 5.42-2.63 7.549-2.63 4.97 0 6.879 4.195 8.272 7.259l.665 1.474c7.445 16.564 10.396 21.204 11.546 22.432l.184.005c1.887 0 5.471-1.31 8.634-2.466 1.75-.64 3.562-1.302 5.348-1.86 11.4-3.563 14.819-5.521 15.83-6.314.031-2.979-2.063-12.523-3.9-16.567-.675-1.482-4.187-8.347-8.255-16.295-10.381-20.287-19.12-37.456-20.918-42.077-3.383-8.698-1.097-14.266 1.416-17.407 1.77-2.212 25.962-27.253 29.565-30.409.739-.646 1.362-1.412 2.084-2.299 1.978-2.429 4.438-5.452 10.555-7.83 3.363-1.308 6.035-1.917 8.406-1.917 4.425 0 7.81 2.117 10.348 6.471 1.191 2.041 10.339 20.385 25.164 50.147 18.108 36.351 40.644 81.591 44.919 89.192 3.125 5.555 6.014 8.372 8.587 8.372.648 0 1.32-.131 2.032-.271.374-.073.733-.141 1.075-.194 5.342-2.242 50.839-32.04 54.536-34.875 1.013-.811 3.374-3.786 3.013-13.561l-.042-1.13c-.418-11.037-.99-26.153 6.189-40.514 8.422-16.844 30.85-18.153 37.523-18.153 8.189 0 31.954-2.067 36.325-3.159 4.496-1.167 62.905-27.051 67.198-29.78 1.007-.672 2.163-1.443.83-6.331-2.888-10.586 3.688-14.025 6.649-15.013 1.255-.418 2.629-.622 4.198-.622 2.573 0 5.329.552 8.245 1.137 3.268.655 6.645 1.332 10.105 1.332 7.377 0 13.068-3.083 14.23-4.272.253-1.138-.005-4.47-1.462-6.517-.885-1.244-1.773-1.412-2.527-1.412-2.242 0-19.889.034-45.013.083-63.516.122-169.821.327-203.653.327-15.371 0-34.187-.302-52.383-.593-18.198-.292-35.388-.568-49.427-.568-20.784 0-26.22.675-27.636 1.041-.55.843.545 4.261 3.261 10.174 1.469 3.198 2.738 5.96 3.085 8.395 1.087 7.601-7.482 11.005-13.74 13.49-1.479.587-2.874 1.141-4.06 1.694-6.225 2.905-31.779 22.357-43.055 51.518-11.227 29.035-35.859 98.085-40.341 126.196-2.39 14.993-4.312 38.557-5.585 54.15-.715 8.762-1.102 13.413-1.385 15.111-.794 4.767.45 6.641 1.131 7.393.158.03.451.068.922.068 1.866 0 4.585-.575 6.769-1.036 1.563-.331 2.914-.616 4.065-.745.323-.034.639-.051.954-.051z"></path></svg>
