<svg xmlns="http://www.w3.org/2000/svg" width="500" height="500" viewBox="0 0 500 500" class="f1-svg-track"><path class="f1-svg-track__outline" d="M180.091 400.305c-5.899 0-15.276-5.816-15.673-6.063-2.146-1.341-29.546-21.706-74.416-55.085-37.743-28.076-80.521-59.9-83.605-61.884-4.214-2.708-6.366-5.848-6.396-9.328-.027-3.342 2.023-6.561 5.777-9.063 3.473-2.315 25.911-12.381 30.374-14.375l.225-.092c3.005-1.127 7.776-3.504 12.828-6.02 12.116-6.034 20.419-9.989 25.247-9.989.271 0 .527.011.771.033 6.41.583 10.622 7 14.007 12.156.996 1.517 1.936 2.95 2.681 3.818 3.447 4.021 15.865 19.266 22.034 27.115 5.324 6.778 17.229 10.981 26.037 12.018.6.07 1.238.106 1.899.106 8.238 0 18.759-5.255 24.894-10.446 5.692-4.816 8.062-17.719 6.594-23.588-1.338-5.351-19.778-34.88-23.067-39.812-1.041-1.562-4.374-8.212-1.687-12.239 2.361-3.543 8.735-3.819 10.633-3.819 3.177 0 6.533.599 9.708 1.732 10.137 3.621 17.765 21.102 18.799 25.242.696 2.788 3.647 4.889 6.863 4.889 1.04 0 2.188.061 3.403.125 1.346.071 2.735.146 4.108.146 4.852 0 6.139-1.014 6.475-1.618.423-.76.931-4.264-10.245-17.471-1.758-2.078-4.331-4.835-7.057-7.752-10.596-11.351-15.239-16.733-15.239-20.653 0-7.622 6.734-8.465 10.758-8.967.721-.091 84.243-11.362 144.226-23.009 56.679-11.007 144.889-41.277 155.019-45.33 2.335-.934 4.354-1.387 6.176-1.387 3.816 0 5.719 2.021 6.514 3.226 1.562 2.369 1.661 5.729.265 8.989-1.767 4.12-11.015 20.34-14.686 24.624-3.146 3.672-37.391 47.429-40.265 51.451-3.8 5.317-9.947 9.358-16.867 11.088-2.897.724-8.985 2.146-15.432 3.65-8.292 1.936-17.69 4.13-19.86 4.749l-.711.205c-2.405.695-5.132 1.483-7.766 1.483-3.729 0-5.824-1.64-6.926-3.016-.242-.304-.521-.668-.836-1.078-2.21-2.883-6.807-8.881-12.112-9.26-6.271-.458-10.397 3.182-11.938 6.266-2.424 4.847-8.623 10.728-14.962 16.361-3.667 3.26-7.479 4.844-11.65 4.844-2.092 0-4.325-.405-6.828-1.239-2.06-.688-5.66-2.369-10.217-4.5-5.917-2.767-15.82-7.396-18.727-7.687-.325-.032-.664-.049-1.005-.049-3.685 0-10.061 1.874-19.513 10.801-6.479 6.119-6.687 14.908-6.838 21.325-.054 2.308-.101 4.302-.456 5.901-1.353 6.093-9.059 9.772-17.217 13.669-1.354.646-2.697 1.288-3.98 1.929-4.352 2.176-6.538 8.938-8.294 14.37-.735 2.271-1.43 4.416-2.251 6.227-3.123 6.874-18.915 16.936-40.883 30.399-16.915 10.367-22.09 23.142-15.822 39.053 2.932 7.44 7.021 18.182 9.857 27.096 3.875 12.178 4.146 16.336 1.211 18.538-1.059.794-2.388 1.195-3.956 1.195zm-140.835-148.562c-10.11 4.519-26.863 12.19-29.111 13.688-1.722 1.148-2.273 2.144-2.271 2.446.003.275.507 1.311 2.781 2.771 3.079 1.98 35.277 25.909 84.046 62.189 35.199 26.185 71.596 53.26 73.894 54.727 2.971 1.856 6.688 3.592 9.237 4.396-.963-4.671-4.206-15.359-12.181-35.599-7.678-19.49-1.097-36.313 19.035-48.651 13.262-8.129 35.46-21.734 37.827-26.944.637-1.401 1.264-3.34 1.928-5.393 2.209-6.832 4.959-15.335 12.265-18.988 1.324-.663 2.711-1.325 4.108-1.993 4.639-2.215 12.402-5.922 12.924-8.271.188-.849.229-2.562.271-4.378.163-6.916.434-18.491 9.303-26.865 9.098-8.593 17.482-12.95 24.919-12.95.603 0 1.204.029 1.789.088 3.936.393 11.302 3.725 21.276 8.388 3.983 1.862 7.745 3.621 9.373 4.163 1.711.57 3.089.836 4.338.836 1.493 0 3.572-.324 6.419-2.855 3.312-2.943 11.071-9.84 13.15-13.996 2.597-5.194 9.362-11.31 19.543-10.601 8.84.634 14.892 8.53 17.801 12.325.272.356.516.674.728.938-.004-.018.232.071.784.071 1.519 0 3.676-.624 5.578-1.174l.735-.213c2.356-.672 11.444-2.793 20.233-4.845 6.415-1.498 12.476-2.912 15.312-3.622 5.058-1.264 9.683-4.264 12.37-8.025 3.086-4.32 37.314-48.056 40.693-51.998 3.066-3.577 11.916-19.077 13.426-22.603.213-.494.306-.927.337-1.235-.496.019-1.485.164-3.128.82-10.226 4.091-99.251 34.644-156.442 45.75-60.2 11.688-144.028 23.001-144.751 23.091-.875.109-3.106.389-3.835.752l-.014.128c1.019 2.603 8.563 10.682 13.11 15.554 2.792 2.99 5.429 5.813 7.312 8.039 8.081 9.55 15.021 19.356 11.117 26.381-2.822 5.081-8.976 5.669-13.357 5.669-1.58 0-3.145-.083-4.524-.155-1.108-.059-2.156-.115-2.987-.115-6.832 0-12.931-4.564-14.502-10.854-1.044-4.179-7.89-17.622-13.808-19.736-2.334-.833-4.775-1.273-7.061-1.273-1.72 0-2.953.244-3.699.469.222 1.051.796 2.586 1.304 3.349.217.323 22.18 34.37 24.155 42.269 2.001 7.998-.567 24.248-9.146 31.509-7.008 5.929-19.378 12.31-29.98 12.31-.967 0-1.916-.054-2.82-.16-9.936-1.169-24.098-5.793-31.308-14.973-6.121-7.789-18.418-22.885-21.82-26.854-1.072-1.252-2.147-2.89-3.285-4.624-2.194-3.343-5.512-8.396-8.138-8.635h-.001c-3.397 0-14.468 5.513-21.794 9.162-5.178 2.578-10.074 5.017-13.458 6.3z"></path></svg>
